<?xml version="1.0" encoding="UTF-8"?>
<svg id="Capa_1" data-name="Capa 1" xmlns="http://www.w3.org/2000/svg" viewBox="0 0 546.78 74.53">
  <defs>
    <style>
      .cls-1 {
        fill: #010101;
      }
    </style>
  </defs>
  <path class="cls-1" d="M0,0h25.65v10.44h-12.78v53.64h12.78v10.44H0V0Z"/>
  <path class="cls-1" d="M30.08,37.34c0-17.8,11.61-31.25,29.41-31.25,6.94,0,12.78,2.01,17.05,5.26,5.18,3.93,8.19,9.78,8.94,16.46h-14.79c-.75-5.35-4.93-9.44-11.28-9.44-9.69,0-14.29,8.1-14.29,18.97s5.51,18.88,14.37,18.88c6.6,0,10.95-4.18,11.61-9.94h14.79c-.42,5.93-3.09,11.36-7.19,15.29-4.6,4.43-10.7,6.77-19.13,6.77-17.55,0-29.5-13.12-29.5-31Z"/>
  <path class="cls-1" d="M106.37,7.26h15.21l21.56,59.74h-15.54l-3.51-10.78h-20.89l-3.43,10.78h-14.87L106.37,7.26ZM120.65,45.61l-4.51-14.46c-1-3.09-2.34-8.44-2.34-8.44h-.17s-1.42,5.35-2.42,8.44l-4.6,14.46h14.04Z"/>
  <path class="cls-1" d="M147.31,7.26h26.91c7.27,0,12.62,2.01,16.29,5.51,3.84,3.59,6.02,8.69,6.02,14.71,0,11.45-7.94,19.55-20.22,19.55h-13.95v19.97h-15.04V7.26ZM173.29,35.33c5.35,0,8.36-3.18,8.36-7.94s-3.09-7.69-8.36-7.69h-10.95v15.63h10.95Z"/>
  <path class="cls-1" d="M201.87,7.26h14.79v59.74h-14.79V7.26Z"/>
  <path class="cls-1" d="M239.55,19.79h-17.38V7.26h49.72v12.53h-17.55v47.21h-14.79V19.79Z"/>
  <path class="cls-1" d="M287.17,7.26h15.21l21.56,59.74h-15.54l-3.51-10.78h-20.89l-3.43,10.78h-14.87l21.47-59.74ZM301.46,45.61l-4.51-14.46c-1-3.09-2.34-8.44-2.34-8.44h-.17s-1.42,5.35-2.42,8.44l-4.6,14.46h14.04Z"/>
  <path class="cls-1" d="M328.12,7.26h14.79v47.21h26.82v12.53h-41.61V7.26Z"/>
  <path class="cls-1" d="M375.41,7.26h14.79v59.74h-14.79V7.26Z"/>
  <path class="cls-1" d="M395.54,48.2h14.87c.67,6.02,4.59,8.52,11.7,8.52,4.85,0,9.61-1.75,9.61-6.27,0-4.76-4.85-5.77-13.04-7.77-10.36-2.42-21.31-5.6-21.31-18.13s10.36-18.38,23.73-18.38,22.98,5.85,23.56,18.38h-14.46c-.58-4.6-4.09-7.19-9.61-7.19-5.18,0-8.61,2.26-8.61,5.6,0,4.18,4.6,5.18,13.54,7.19,11.11,2.59,21.14,6.02,21.14,18.8s-10.7,19.47-24.48,19.47c-15.88,0-26.32-7.02-26.66-20.22Z"/>
  <path class="cls-1" d="M452.69,7.26h19.89l7.27,26.15c1.09,3.76,3.43,13.62,3.43,13.62h.17s2.34-9.86,3.34-13.62l7.35-26.15h20.05v59.74h-13.54v-30.08c0-2.42.25-11.95.25-11.95h-.17s-2.09,8.94-2.76,11.11l-8.61,30.92h-12.2l-8.52-30.83c-.67-2.17-2.76-11.2-2.76-11.2h-.17s.25,9.61.25,12.03v30h-13.29V7.26Z"/>
  <path class="cls-1" d="M521.12,64.09h12.78V10.44h-12.78V0h25.65v74.53h-25.65v-10.44Z"/>
  <rect class="cls-1" x="53.79" y="2" width="12" height="7"/>
  <rect class="cls-1" x="53.79" y="65.78" width="12" height="7"/>
</svg>